<svg width="400" height="400" viewBox="0 0 400 400" fill="none" xmlns="http://www.w3.org/2000/svg">
<g clip-path="url(#clip0_752_53)">
<path d="M357.834 76.4015L231.026 8.58837C209.613 -2.86318 183.005 -2.8624 161.591 8.58837L34.7836 76.4015C13.3279 87.8742 0 109.271 0 132.239V267.76C0 290.729 13.3279 312.125 34.7827 323.598L161.591 391.411C183.008 402.865 209.615 402.861 231.026 391.411L357.833 323.598C379.289 312.125 392.616 290.729 392.616 267.76V132.239C392.616 109.271 379.289 87.8749 357.834 76.4015ZM358.915 267.76C358.915 279.591 352.05 290.612 340.998 296.522L214.191 364.335C203.16 370.235 189.456 370.235 178.425 364.335L51.6173 296.522C40.5659 290.612 33.701 279.591 33.701 267.76V132.239C33.701 120.409 40.5659 109.388 51.6181 103.479L178.425 35.6649C189.456 29.7649 203.165 29.7673 214.191 35.6649L340.999 103.477C352.05 109.388 358.915 120.408 358.915 132.239V267.76Z" fill="#445964"/>
<path d="M128.293 192.261L78.8927 160.399C73.2862 156.782 64.8925 157.315 60.1471 161.59C55.4024 165.864 56.102 172.261 61.7097 175.878L99.1105 200.001L61.7097 224.123C56.102 227.74 55.403 234.137 60.1471 238.411C64.9037 242.695 73.2992 243.209 78.8927 239.601L128.293 207.74C134.578 203.687 134.56 196.303 128.293 192.261Z" fill="#445964"/>
<path d="M213.1 190.7V201.294H163.928L163.272 193.091L191.725 147.95H202.459L190.834 167.403L176.678 190.7H213.1ZM205.366 147.95V216.2H191.866V147.95H205.366ZM266.35 176.075V187.888C266.35 193.013 265.803 197.434 264.709 201.153C263.616 204.841 262.038 207.872 259.975 210.247C257.944 212.591 255.522 214.325 252.709 215.45C249.897 216.575 246.772 217.138 243.334 217.138C240.584 217.138 238.022 216.794 235.647 216.106C233.272 215.388 231.131 214.278 229.225 212.778C227.35 211.278 225.725 209.388 224.35 207.106C223.006 204.794 221.975 202.044 221.256 198.856C220.538 195.669 220.178 192.013 220.178 187.888V176.075C220.178 170.95 220.725 166.559 221.819 162.903C222.944 159.216 224.522 156.2 226.553 153.856C228.616 151.513 231.053 149.794 233.866 148.7C236.678 147.575 239.803 147.013 243.241 147.013C245.991 147.013 248.538 147.372 250.881 148.091C253.256 148.778 255.397 149.856 257.303 151.325C259.209 152.794 260.834 154.684 262.178 156.997C263.522 159.278 264.553 162.013 265.272 165.2C265.991 168.356 266.35 171.981 266.35 176.075ZM252.803 189.669V174.247C252.803 171.778 252.663 169.622 252.381 167.778C252.131 165.934 251.741 164.372 251.209 163.091C250.678 161.778 250.022 160.716 249.241 159.903C248.459 159.091 247.569 158.497 246.569 158.122C245.569 157.747 244.459 157.559 243.241 157.559C241.709 157.559 240.35 157.856 239.163 158.45C238.006 159.044 237.022 159.997 236.209 161.309C235.397 162.591 234.772 164.309 234.334 166.466C233.928 168.591 233.725 171.184 233.725 174.247V189.669C233.725 192.138 233.85 194.309 234.1 196.184C234.381 198.059 234.788 199.669 235.319 201.013C235.881 202.325 236.538 203.403 237.288 204.247C238.069 205.059 238.959 205.653 239.959 206.028C240.991 206.403 242.116 206.591 243.334 206.591C244.834 206.591 246.163 206.294 247.319 205.7C248.506 205.075 249.506 204.106 250.319 202.794C251.163 201.45 251.788 199.7 252.194 197.544C252.6 195.388 252.803 192.763 252.803 189.669ZM323.35 190.7V201.294H274.178L273.522 193.091L301.975 147.95H312.709L301.084 167.403L286.928 190.7H323.35ZM315.616 147.95V216.2H302.116V147.95H315.616Z" fill="#445964"/>
<rect x="164" y="225" width="159" height="11" rx="5.5" fill="#445964"/>
</g>
<defs>
<clipPath id="clip0_752_53">
<rect width="400" height="400" fill="white"/>
</clipPath>
</defs>
</svg>
