<svg width="27" height="51" viewBox="0 0 27 51" fill="none" xmlns="http://www.w3.org/2000/svg">
<path d="M21.7432 0.987835L0.555891 24.5285C0.252839 24.8649 0.101074 25.2518 0.101074 25.6895C0.101074 26.1272 0.252839 26.5149 0.555891 26.8514L21.7432 50.3901C22.0468 50.7273 22.395 50.8954 22.7892 50.8954C23.1832 50.8954 23.5319 50.7268 23.8348 50.3901L26.1075 47.865C26.4105 47.5283 26.562 47.1409 26.562 46.7032C26.562 46.2654 26.4105 45.878 26.1075 45.5413L8.23936 25.6895L26.1086 5.83702C26.4116 5.5005 26.5621 5.11286 26.5621 4.67585C26.5621 4.23743 26.4107 3.84996 26.1086 3.51345L23.835 0.988014C23.5321 0.651501 23.1832 0.484303 22.7893 0.484303C22.395 0.484127 22.0463 0.651321 21.7432 0.987835Z" fill="white"/>
</svg>
