<svg width="47" height="52" viewBox="0 0 47 52" fill="none" xmlns="http://www.w3.org/2000/svg">
<g clip-path="url(#clip0_709_71)">
<path d="M2.09763 16.5054L23.2864 40.0445C23.5891 40.3812 23.9374 40.5498 24.3314 40.5498C24.7254 40.5498 25.0743 40.3812 25.3772 40.0445L46.5642 16.5054C46.8678 16.1682 47.019 15.7813 47.019 15.3434C47.019 14.9057 46.8673 14.5182 46.5642 14.1817L44.2914 11.6568C43.9884 11.3201 43.6396 11.1518 43.2456 11.1518C42.8516 11.1518 42.5029 11.3201 42.1998 11.6568L24.3314 31.5082L6.46235 11.6555C6.15945 11.3189 5.81054 11.1517 5.41719 11.1517C5.02257 11.1517 4.67381 11.3199 4.37092 11.6555L2.0978 14.1815C1.7949 14.518 1.64441 14.9057 1.64441 15.3432C1.64425 15.7813 1.79474 16.1687 2.09763 16.5054Z" fill="white"/>
</g>
<defs>
<clipPath id="clip0_709_71">
<rect width="45.3748" height="50.4113" fill="white" transform="translate(46.019 51.0564) rotate(-180)"/>
</clipPath>
</defs>
</svg>
