<svg width="40" height="40" viewBox="0 0 40 40" fill="none" xmlns="http://www.w3.org/2000/svg">
<path d="M19.9997 0C8.95431 0 0 8.95444 0 19.9998C0 31.0448 8.95418 40 19.9994 40C31.0446 40 39.9997 31.0448 39.9997 19.9998C39.9997 8.95444 31.0448 0 19.9997 0ZM27.5441 27.6225C26.7456 28.4204 25.452 28.4204 24.6542 27.6225L20.1033 23.0716L15.3452 27.8297C14.5471 28.6276 13.2533 28.6276 12.4556 27.8297C11.6571 27.0309 11.6571 25.7376 12.4556 24.9391L17.2133 20.1814L12.7835 15.7518C11.9856 14.9531 11.9856 13.6597 12.7835 12.8615C13.5816 12.0633 14.8756 12.0633 15.6738 12.8615L20.1034 17.291L24.3262 13.068C25.1243 12.2701 26.4187 12.2699 27.2161 13.068C28.0147 13.8668 28.0147 15.1609 27.2161 15.9584L22.9938 20.1811L27.5444 24.732C28.3423 25.5297 28.3427 26.8241 27.5441 27.6225Z" fill="#232323" fill-opacity="0.9"/>
</svg>
