<svg width="40" height="40" viewBox="0 0 40 40" fill="none" xmlns="http://www.w3.org/2000/svg">
<g clip-path="url(#clip0_703_2)">
<path d="M20.0117 40.0073L27.3717 15.4395H12.6516L20.0116 40.0073H20.0117Z" fill="#E24329"/>
<path d="M20.0117 40.0071L12.6516 15.4393H2.33688L20.0117 40.0071Z" fill="#FC6D26"/>
<path d="M2.33688 15.4393L0.10032 22.9054C0.000875244 23.2373 0.000861526 23.5948 0.100281 23.9268C0.1997 24.2587 0.393447 24.5479 0.653757 24.7531L20.0117 40.0073L2.33673 15.4394L2.33688 15.4393Z" fill="#FCA326"/>
<path d="M2.33688 15.4394H12.6516L8.21891 0.642292C7.99079 -0.11913 6.99766 -0.118961 6.7697 0.642292L2.33688 15.4394Z" fill="#E24329"/>
<path d="M20.0117 40.0071L27.3717 15.4393H37.6866L20.0116 40.0071H20.0117Z" fill="#FC6D26"/>
<path d="M37.6866 15.4393L39.9231 22.9054C40.0226 23.2373 40.0225 23.5949 39.9231 23.9268C39.8236 24.2587 39.6299 24.548 39.3695 24.7531L20.0117 40.0073L37.6866 15.4394V15.4393Z" fill="#FCA326"/>
<path d="M37.6865 15.4394H27.3717L31.8045 0.642292C32.0326 -0.11913 33.0258 -0.118961 33.2537 0.642292L37.6865 15.4394Z" fill="#E24329"/>
</g>
<defs>
<clipPath id="clip0_703_2">
<rect width="40" height="40" fill="white"/>
</clipPath>
</defs>
</svg>
