<svg width="384" height="55" viewBox="0 0 384 55" fill="none" xmlns="http://www.w3.org/2000/svg">
<path d="M77.0684 14.4062V40H70.916V14.4062H77.0684ZM91.834 14.4062L82.6406 29.875H75.9961L75.2578 24.3027H79.459L84.3809 14.4062H91.834ZM85.4355 40L79.4414 28.8027L83.9238 24.6719L92.7129 40H85.4355ZM103.857 35.2188V27.3789C103.857 26.8398 103.781 26.377 103.629 25.9902C103.477 25.6035 103.236 25.3047 102.908 25.0938C102.58 24.8711 102.141 24.7598 101.59 24.7598C101.145 24.7598 100.764 24.8359 100.447 24.9883C100.131 25.1406 99.8906 25.3691 99.7266 25.6738C99.5625 25.9785 99.4805 26.3652 99.4805 26.834H93.5566C93.5566 25.9551 93.75 25.1406 94.1367 24.3906C94.5352 23.6289 95.0977 22.9668 95.8242 22.4043C96.5625 21.8418 97.4414 21.4082 98.4609 21.1035C99.4922 20.7871 100.641 20.6289 101.906 20.6289C103.418 20.6289 104.766 20.8809 105.949 21.3848C107.145 21.8887 108.088 22.6445 108.779 23.6523C109.471 24.6484 109.816 25.9023 109.816 27.4141V35.2012C109.816 36.4434 109.887 37.3867 110.027 38.0312C110.168 38.6641 110.367 39.2207 110.625 39.7012V40H104.684C104.402 39.4141 104.191 38.6992 104.051 37.8555C103.922 37 103.857 36.1211 103.857 35.2188ZM104.578 28.3809L104.613 31.5449H101.994C101.443 31.5449 100.975 31.6211 100.588 31.7734C100.213 31.9258 99.9082 32.1367 99.6738 32.4062C99.4512 32.6641 99.2871 32.957 99.1816 33.2852C99.0879 33.6133 99.041 33.959 99.041 34.3223C99.041 34.6738 99.123 34.9902 99.2871 35.2715C99.4629 35.541 99.6973 35.752 99.9902 35.9043C100.283 36.0566 100.611 36.1328 100.975 36.1328C101.631 36.1328 102.188 36.0098 102.645 35.7637C103.113 35.5059 103.471 35.1953 103.717 34.832C103.963 34.4688 104.086 34.1289 104.086 33.8125L105.387 36.2383C105.152 36.707 104.883 37.1816 104.578 37.6621C104.285 38.1426 103.916 38.5879 103.471 38.998C103.037 39.3965 102.504 39.7246 101.871 39.9824C101.238 40.2285 100.471 40.3516 99.5684 40.3516C98.3965 40.3516 97.3184 40.1113 96.334 39.6309C95.3613 39.1504 94.582 38.4824 93.9961 37.627C93.4102 36.7598 93.1172 35.7637 93.1172 34.6387C93.1172 33.6543 93.293 32.7754 93.6445 32.002C94.0078 31.2285 94.5527 30.5723 95.2793 30.0332C96.0059 29.4941 96.9316 29.084 98.0566 28.8027C99.1816 28.5215 100.506 28.3809 102.029 28.3809H104.578ZM119.08 24.6367V47.3125H113.156V20.9805H118.676L119.08 24.6367ZM130.752 30.2617V30.6309C130.752 32.0137 130.594 33.2969 130.277 34.4805C129.961 35.6641 129.492 36.6953 128.871 37.5742C128.25 38.4531 127.477 39.1387 126.551 39.6309C125.637 40.1113 124.576 40.3516 123.369 40.3516C122.232 40.3516 121.254 40.0996 120.434 39.5957C119.613 39.0918 118.928 38.3945 118.377 37.5039C117.826 36.6133 117.381 35.5938 117.041 34.4453C116.701 33.2969 116.432 32.084 116.232 30.8066V30.332C116.432 28.9609 116.701 27.6895 117.041 26.5176C117.381 25.334 117.826 24.3027 118.377 23.4238C118.928 22.5449 119.607 21.8594 120.416 21.3672C121.236 20.875 122.215 20.6289 123.352 20.6289C124.559 20.6289 125.619 20.8574 126.533 21.3145C127.459 21.7715 128.232 22.4277 128.854 23.2832C129.486 24.127 129.961 25.1406 130.277 26.3242C130.594 27.5078 130.752 28.8203 130.752 30.2617ZM124.828 30.6309V30.2617C124.828 29.5234 124.775 28.8496 124.67 28.2402C124.564 27.6191 124.395 27.0801 124.16 26.623C123.938 26.166 123.639 25.8145 123.264 25.5684C122.889 25.3223 122.426 25.1992 121.875 25.1992C121.242 25.1992 120.709 25.2988 120.275 25.498C119.854 25.6855 119.514 25.9785 119.256 26.377C119.01 26.7637 118.834 27.25 118.729 27.8359C118.635 28.4102 118.594 29.084 118.605 29.8574V31.2988C118.582 32.1895 118.67 32.9746 118.869 33.6543C119.068 34.3223 119.414 34.8438 119.906 35.2188C120.398 35.5938 121.066 35.7812 121.91 35.7812C122.473 35.7812 122.941 35.6523 123.316 35.3945C123.691 35.125 123.99 34.7559 124.213 34.2871C124.436 33.8066 124.594 33.2559 124.688 32.6348C124.781 32.0137 124.828 31.3457 124.828 30.6309ZM143.303 20.9805V40H137.361V20.9805H143.303ZM149.314 20.9805V25.5156H131.455V20.9805H149.314ZM150.264 30.6836V30.3145C150.264 28.9199 150.463 27.6367 150.861 26.4648C151.26 25.2812 151.846 24.2559 152.619 23.3887C153.393 22.5215 154.348 21.8477 155.484 21.3672C156.621 20.875 157.934 20.6289 159.422 20.6289C160.922 20.6289 162.24 20.875 163.377 21.3672C164.525 21.8477 165.486 22.5215 166.26 23.3887C167.033 24.2559 167.619 25.2812 168.018 26.4648C168.416 27.6367 168.615 28.9199 168.615 30.3145V30.6836C168.615 32.0664 168.416 33.3496 168.018 34.5332C167.619 35.7051 167.033 36.7305 166.26 37.6094C165.486 38.4766 164.531 39.1504 163.395 39.6309C162.258 40.1113 160.945 40.3516 159.457 40.3516C157.969 40.3516 156.65 40.1113 155.502 39.6309C154.354 39.1504 153.393 38.4766 152.619 37.6094C151.846 36.7305 151.26 35.7051 150.861 34.5332C150.463 33.3496 150.264 32.0664 150.264 30.6836ZM156.188 30.3145V30.6836C156.188 31.3984 156.24 32.0664 156.346 32.6875C156.451 33.3086 156.627 33.8535 156.873 34.3223C157.119 34.7793 157.453 35.1367 157.875 35.3945C158.297 35.6523 158.824 35.7812 159.457 35.7812C160.078 35.7812 160.594 35.6523 161.004 35.3945C161.426 35.1367 161.76 34.7793 162.006 34.3223C162.252 33.8535 162.428 33.3086 162.533 32.6875C162.639 32.0664 162.691 31.3984 162.691 30.6836V30.3145C162.691 29.623 162.639 28.9727 162.533 28.3633C162.428 27.7422 162.252 27.1973 162.006 26.7285C161.76 26.248 161.426 25.873 161.004 25.6035C160.582 25.334 160.055 25.1992 159.422 25.1992C158.801 25.1992 158.279 25.334 157.857 25.6035C157.447 25.873 157.119 26.248 156.873 26.7285C156.627 27.1973 156.451 27.7422 156.346 28.3633C156.24 28.9727 156.188 29.623 156.188 30.3145ZM181.377 20.9805V40H175.436V20.9805H181.377ZM187.389 20.9805V25.5156H169.529V20.9805H187.389ZM197.689 40.3516C196.143 40.3516 194.76 40.1113 193.541 39.6309C192.322 39.1387 191.291 38.4648 190.447 37.6094C189.615 36.7539 188.977 35.7695 188.531 34.6562C188.098 33.543 187.881 32.3652 187.881 31.123V30.4551C187.881 29.0605 188.074 27.7715 188.461 26.5879C188.848 25.3926 189.422 24.3496 190.184 23.459C190.945 22.5684 191.9 21.877 193.049 21.3848C194.197 20.8809 195.533 20.6289 197.057 20.6289C198.404 20.6289 199.611 20.8457 200.678 21.2793C201.744 21.7129 202.646 22.334 203.385 23.1426C204.135 23.9512 204.703 24.9297 205.09 26.0781C205.488 27.2266 205.688 28.5156 205.688 29.9453V32.3535H190.148V28.6445H199.904V28.1875C199.916 27.5547 199.805 27.0156 199.57 26.5703C199.348 26.125 199.02 25.7852 198.586 25.5508C198.152 25.3164 197.625 25.1992 197.004 25.1992C196.359 25.1992 195.826 25.3398 195.404 25.6211C194.994 25.9023 194.672 26.2891 194.438 26.7812C194.215 27.2617 194.057 27.8184 193.963 28.4512C193.869 29.084 193.822 29.752 193.822 30.4551V31.123C193.822 31.8262 193.916 32.4648 194.104 33.0391C194.303 33.6133 194.584 34.1055 194.947 34.5156C195.322 34.9141 195.768 35.2246 196.283 35.4473C196.811 35.6699 197.408 35.7812 198.076 35.7812C198.885 35.7812 199.682 35.6289 200.467 35.3242C201.252 35.0195 201.926 34.5156 202.488 33.8125L205.178 37.0117C204.791 37.5625 204.24 38.0957 203.525 38.6113C202.822 39.127 201.979 39.5488 200.994 39.877C200.01 40.1934 198.908 40.3516 197.689 40.3516ZM214.424 20.9805V40H208.5V20.9805H214.424ZM226.746 20.9805L218.941 33.3555H213.633L212.965 27.8184H216.146L219.152 20.9805H226.746ZM219.275 40L215.707 32.248L221.209 29.7695L227.309 40H219.275ZM238.611 35.2188V27.3789C238.611 26.8398 238.535 26.377 238.383 25.9902C238.23 25.6035 237.99 25.3047 237.662 25.0938C237.334 24.8711 236.895 24.7598 236.344 24.7598C235.898 24.7598 235.518 24.8359 235.201 24.9883C234.885 25.1406 234.645 25.3691 234.48 25.6738C234.316 25.9785 234.234 26.3652 234.234 26.834H228.311C228.311 25.9551 228.504 25.1406 228.891 24.3906C229.289 23.6289 229.852 22.9668 230.578 22.4043C231.316 21.8418 232.195 21.4082 233.215 21.1035C234.246 20.7871 235.395 20.6289 236.66 20.6289C238.172 20.6289 239.52 20.8809 240.703 21.3848C241.898 21.8887 242.842 22.6445 243.533 23.6523C244.225 24.6484 244.57 25.9023 244.57 27.4141V35.2012C244.57 36.4434 244.641 37.3867 244.781 38.0312C244.922 38.6641 245.121 39.2207 245.379 39.7012V40H239.438C239.156 39.4141 238.945 38.6992 238.805 37.8555C238.676 37 238.611 36.1211 238.611 35.2188ZM239.332 28.3809L239.367 31.5449H236.748C236.197 31.5449 235.729 31.6211 235.342 31.7734C234.967 31.9258 234.662 32.1367 234.428 32.4062C234.205 32.6641 234.041 32.957 233.936 33.2852C233.842 33.6133 233.795 33.959 233.795 34.3223C233.795 34.6738 233.877 34.9902 234.041 35.2715C234.217 35.541 234.451 35.752 234.744 35.9043C235.037 36.0566 235.365 36.1328 235.729 36.1328C236.385 36.1328 236.941 36.0098 237.398 35.7637C237.867 35.5059 238.225 35.1953 238.471 34.832C238.717 34.4688 238.84 34.1289 238.84 33.8125L240.141 36.2383C239.906 36.707 239.637 37.1816 239.332 37.6621C239.039 38.1426 238.67 38.5879 238.225 38.998C237.791 39.3965 237.258 39.7246 236.625 39.9824C235.992 40.2285 235.225 40.3516 234.322 40.3516C233.15 40.3516 232.072 40.1113 231.088 39.6309C230.115 39.1504 229.336 38.4824 228.75 37.627C228.164 36.7598 227.871 35.7637 227.871 34.6387C227.871 33.6543 228.047 32.7754 228.398 32.002C228.762 31.2285 229.307 30.5723 230.033 30.0332C230.76 29.4941 231.686 29.084 232.811 28.8027C233.936 28.5215 235.26 28.3809 236.783 28.3809H239.332ZM268.67 28.0117V32.5996H258.316V28.0117H268.67ZM263.273 20.9805V40H257.332V20.9805H263.273ZM264.926 30.6836V30.3145C264.926 28.9199 265.125 27.6367 265.523 26.4648C265.922 25.2812 266.508 24.2559 267.281 23.3887C268.055 22.5215 269.01 21.8477 270.146 21.3672C271.295 20.875 272.607 20.6289 274.084 20.6289C275.584 20.6289 276.902 20.875 278.039 21.3672C279.188 21.8477 280.148 22.5215 280.922 23.3887C281.707 24.2559 282.293 25.2812 282.68 26.4648C283.078 27.6367 283.277 28.9199 283.277 30.3145V30.6836C283.277 32.0664 283.078 33.3496 282.68 34.5332C282.293 35.7051 281.713 36.7305 280.939 37.6094C280.166 38.4766 279.205 39.1504 278.057 39.6309C276.92 40.1113 275.607 40.3516 274.119 40.3516C272.631 40.3516 271.312 40.1113 270.164 39.6309C269.027 39.1504 268.066 38.4766 267.281 37.6094C266.508 36.7305 265.922 35.7051 265.523 34.5332C265.125 33.3496 264.926 32.0664 264.926 30.6836ZM270.85 30.3145V30.6836C270.85 31.3984 270.902 32.0664 271.008 32.6875C271.113 33.3086 271.289 33.8535 271.535 34.3223C271.781 34.7793 272.115 35.1367 272.537 35.3945C272.959 35.6523 273.486 35.7812 274.119 35.7812C274.74 35.7812 275.256 35.6523 275.666 35.3945C276.088 35.1367 276.422 34.7793 276.668 34.3223C276.914 33.8535 277.09 33.3086 277.195 32.6875C277.301 32.0664 277.354 31.3984 277.354 30.6836V30.3145C277.354 29.623 277.301 28.9727 277.195 28.3633C277.09 27.7422 276.914 27.1973 276.668 26.7285C276.422 26.248 276.088 25.873 275.666 25.6035C275.244 25.334 274.717 25.1992 274.084 25.1992C273.463 25.1992 272.941 25.334 272.52 25.6035C272.109 25.873 271.781 26.248 271.535 26.7285C271.289 27.1973 271.113 27.7422 271.008 28.3633C270.902 28.9727 270.85 29.623 270.85 30.3145ZM295.16 30.9297H291.258V28.5391H293.701C294.205 28.5391 294.609 28.4629 294.914 28.3105C295.23 28.1582 295.459 27.9473 295.6 27.6777C295.752 27.3965 295.828 27.0801 295.828 26.7285C295.828 26.4238 295.775 26.1309 295.67 25.8496C295.576 25.5684 295.389 25.334 295.107 25.1465C294.826 24.959 294.41 24.8652 293.859 24.8652C293.402 24.8652 293.004 24.9238 292.664 25.041C292.324 25.1582 292.061 25.3398 291.873 25.5859C291.686 25.8203 291.592 26.125 291.592 26.5H285.65C285.65 25.2695 286.002 24.2207 286.705 23.3535C287.408 22.4746 288.352 21.8066 289.535 21.3496C290.719 20.8809 292.025 20.6465 293.455 20.6465C294.709 20.6465 295.846 20.7695 296.865 21.0156C297.885 21.25 298.758 21.6016 299.484 22.0703C300.211 22.5391 300.768 23.1191 301.154 23.8105C301.553 24.4902 301.752 25.2812 301.752 26.1836C301.752 26.8281 301.6 27.4375 301.295 28.0117C300.99 28.5859 300.551 29.0957 299.977 29.541C299.402 29.9746 298.705 30.3145 297.885 30.5605C297.076 30.8066 296.168 30.9297 295.16 30.9297ZM291.258 29.6641H295.16C296.285 29.6641 297.275 29.7754 298.131 29.998C298.998 30.209 299.725 30.5254 300.311 30.9473C300.896 31.3691 301.336 31.8906 301.629 32.5117C301.934 33.1211 302.086 33.8242 302.086 34.6211C302.086 35.5234 301.875 36.332 301.453 37.0469C301.031 37.75 300.434 38.3477 299.66 38.8398C298.887 39.332 297.973 39.707 296.918 39.9648C295.863 40.2227 294.709 40.3516 293.455 40.3516C292.131 40.3516 290.848 40.1406 289.605 39.7188C288.363 39.2969 287.344 38.6465 286.547 37.7676C285.75 36.8887 285.352 35.7578 285.352 34.375H291.293C291.293 34.6914 291.381 34.9844 291.557 35.2539C291.732 35.5234 292.008 35.7402 292.383 35.9043C292.77 36.0566 293.268 36.1328 293.877 36.1328C294.475 36.1328 294.938 36.0332 295.266 35.834C295.605 35.6348 295.84 35.377 295.969 35.0605C296.109 34.7441 296.18 34.4219 296.18 34.0938C296.18 33.5898 296.086 33.1855 295.898 32.8809C295.711 32.5762 295.43 32.3535 295.055 32.2129C294.691 32.0605 294.24 31.9844 293.701 31.9844H291.258V29.6641ZM313.811 40.3516C312.264 40.3516 310.881 40.1113 309.662 39.6309C308.443 39.1387 307.412 38.4648 306.568 37.6094C305.736 36.7539 305.098 35.7695 304.652 34.6562C304.219 33.543 304.002 32.3652 304.002 31.123V30.4551C304.002 29.0605 304.195 27.7715 304.582 26.5879C304.969 25.3926 305.543 24.3496 306.305 23.459C307.066 22.5684 308.021 21.877 309.17 21.3848C310.318 20.8809 311.654 20.6289 313.178 20.6289C314.525 20.6289 315.732 20.8457 316.799 21.2793C317.865 21.7129 318.768 22.334 319.506 23.1426C320.256 23.9512 320.824 24.9297 321.211 26.0781C321.609 27.2266 321.809 28.5156 321.809 29.9453V32.3535H306.27V28.6445H316.025V28.1875C316.037 27.5547 315.926 27.0156 315.691 26.5703C315.469 26.125 315.141 25.7852 314.707 25.5508C314.273 25.3164 313.746 25.1992 313.125 25.1992C312.48 25.1992 311.947 25.3398 311.525 25.6211C311.115 25.9023 310.793 26.2891 310.559 26.7812C310.336 27.2617 310.178 27.8184 310.084 28.4512C309.99 29.084 309.943 29.752 309.943 30.4551V31.123C309.943 31.8262 310.037 32.4648 310.225 33.0391C310.424 33.6133 310.705 34.1055 311.068 34.5156C311.443 34.9141 311.889 35.2246 312.404 35.4473C312.932 35.6699 313.529 35.7812 314.197 35.7812C315.006 35.7812 315.803 35.6289 316.588 35.3242C317.373 35.0195 318.047 34.5156 318.609 33.8125L321.299 37.0117C320.912 37.5625 320.361 38.0957 319.646 38.6113C318.943 39.127 318.1 39.5488 317.115 39.877C316.131 40.1934 315.029 40.3516 313.811 40.3516ZM330.193 24.6367V47.3125H324.27V20.9805H329.789L330.193 24.6367ZM341.865 30.2617V30.6309C341.865 32.0137 341.707 33.2969 341.391 34.4805C341.074 35.6641 340.605 36.6953 339.984 37.5742C339.363 38.4531 338.59 39.1387 337.664 39.6309C336.75 40.1113 335.689 40.3516 334.482 40.3516C333.346 40.3516 332.367 40.0996 331.547 39.5957C330.727 39.0918 330.041 38.3945 329.49 37.5039C328.939 36.6133 328.494 35.5938 328.154 34.4453C327.814 33.2969 327.545 32.084 327.346 30.8066V30.332C327.545 28.9609 327.814 27.6895 328.154 26.5176C328.494 25.334 328.939 24.3027 329.49 23.4238C330.041 22.5449 330.721 21.8594 331.529 21.3672C332.35 20.875 333.328 20.6289 334.465 20.6289C335.672 20.6289 336.732 20.8574 337.646 21.3145C338.572 21.7715 339.346 22.4277 339.967 23.2832C340.6 24.127 341.074 25.1406 341.391 26.3242C341.707 27.5078 341.865 28.8203 341.865 30.2617ZM335.941 30.6309V30.2617C335.941 29.5234 335.889 28.8496 335.783 28.2402C335.678 27.6191 335.508 27.0801 335.273 26.623C335.051 26.166 334.752 25.8145 334.377 25.5684C334.002 25.3223 333.539 25.1992 332.988 25.1992C332.355 25.1992 331.822 25.2988 331.389 25.498C330.967 25.6855 330.627 25.9785 330.369 26.377C330.123 26.7637 329.947 27.25 329.842 27.8359C329.748 28.4102 329.707 29.084 329.719 29.8574V31.2988C329.695 32.1895 329.783 32.9746 329.982 33.6543C330.182 34.3223 330.527 34.8438 331.02 35.2188C331.512 35.5938 332.18 35.7812 333.023 35.7812C333.586 35.7812 334.055 35.6523 334.43 35.3945C334.805 35.125 335.104 34.7559 335.326 34.2871C335.549 33.8066 335.707 33.2559 335.801 32.6348C335.895 32.0137 335.941 31.3457 335.941 30.6309ZM343.764 30.6836V30.3145C343.764 28.9199 343.963 27.6367 344.361 26.4648C344.76 25.2812 345.346 24.2559 346.119 23.3887C346.893 22.5215 347.848 21.8477 348.984 21.3672C350.121 20.875 351.434 20.6289 352.922 20.6289C354.422 20.6289 355.74 20.875 356.877 21.3672C358.025 21.8477 358.986 22.5215 359.76 23.3887C360.533 24.2559 361.119 25.2812 361.518 26.4648C361.916 27.6367 362.115 28.9199 362.115 30.3145V30.6836C362.115 32.0664 361.916 33.3496 361.518 34.5332C361.119 35.7051 360.533 36.7305 359.76 37.6094C358.986 38.4766 358.031 39.1504 356.895 39.6309C355.758 40.1113 354.445 40.3516 352.957 40.3516C351.469 40.3516 350.15 40.1113 349.002 39.6309C347.854 39.1504 346.893 38.4766 346.119 37.6094C345.346 36.7305 344.76 35.7051 344.361 34.5332C343.963 33.3496 343.764 32.0664 343.764 30.6836ZM349.688 30.3145V30.6836C349.688 31.3984 349.74 32.0664 349.846 32.6875C349.951 33.3086 350.127 33.8535 350.373 34.3223C350.619 34.7793 350.953 35.1367 351.375 35.3945C351.797 35.6523 352.324 35.7812 352.957 35.7812C353.578 35.7812 354.094 35.6523 354.504 35.3945C354.926 35.1367 355.26 34.7793 355.506 34.3223C355.752 33.8535 355.928 33.3086 356.033 32.6875C356.139 32.0664 356.191 31.3984 356.191 30.6836V30.3145C356.191 29.623 356.139 28.9727 356.033 28.3633C355.928 27.7422 355.752 27.1973 355.506 26.7285C355.26 26.248 354.926 25.873 354.504 25.6035C354.082 25.334 353.555 25.1992 352.922 25.1992C352.301 25.1992 351.779 25.334 351.357 25.6035C350.947 25.873 350.619 26.248 350.373 26.7285C350.127 27.1973 349.951 27.7422 349.846 28.3633C349.74 28.9727 349.688 29.623 349.688 30.3145ZM374.543 32.248H368.707L368.672 28.5918H373.523C374.004 28.5918 374.385 28.5391 374.666 28.4336C374.959 28.3281 375.164 28.1699 375.281 27.959C375.41 27.7363 375.475 27.4727 375.475 27.168C375.475 26.8633 375.428 26.6055 375.334 26.3945C375.252 26.1836 375.117 26.0137 374.93 25.8848C374.754 25.7559 374.531 25.6621 374.262 25.6035C373.992 25.5449 373.676 25.5156 373.312 25.5156H371.08V40H365.156V20.9805H373.312C374.566 20.9805 375.691 21.0918 376.688 21.3145C377.684 21.5254 378.527 21.8535 379.219 22.2988C379.922 22.7324 380.461 23.2832 380.836 23.9512C381.211 24.6191 381.398 25.4043 381.398 26.3066C381.398 26.8926 381.258 27.4434 380.977 27.959C380.695 28.4746 380.279 28.9316 379.729 29.3301C379.189 29.7285 378.521 30.0566 377.725 30.3145C376.928 30.5605 376.014 30.7129 374.982 30.7715L374.543 32.248ZM374.543 40H367.424L369.234 35.4648H374.543C375.035 35.4648 375.434 35.4062 375.738 35.2891C376.043 35.1719 376.266 34.9961 376.406 34.7617C376.547 34.5273 376.617 34.2402 376.617 33.9004C376.617 33.5723 376.559 33.2852 376.441 33.0391C376.324 32.793 376.113 32.5996 375.809 32.459C375.516 32.3184 375.094 32.248 374.543 32.248H369.902L369.938 28.5918H374.947L376.213 30.0859C377.689 30.168 378.891 30.4199 379.816 30.8418C380.754 31.2637 381.439 31.7969 381.873 32.4414C382.318 33.0859 382.541 33.7949 382.541 34.5684C382.541 35.4707 382.365 36.2617 382.014 36.9414C381.674 37.6211 381.164 38.1895 380.484 38.6465C379.805 39.0918 378.967 39.4316 377.971 39.666C376.986 39.8887 375.844 40 374.543 40Z" fill="#445964"/>
<path d="M45.6238 10.5052L29.4558 1.1809C26.7256 -0.393688 23.3331 -0.39358 20.6028 1.1809L4.43491 10.5052C1.69931 12.0827 0 15.0247 0 18.1829V36.817C0 39.9752 1.69931 42.9172 4.4348 44.4947L20.6028 53.819C23.3335 55.3939 26.7259 55.3934 29.4558 53.819L45.6237 44.4947C48.3593 42.9172 50.0586 39.9752 50.0586 36.817V18.1829C50.0586 15.0248 48.3593 12.0828 45.6238 10.5052ZM45.7617 36.817C45.7617 38.4438 44.8864 39.9592 43.4773 40.7718L27.3093 50.0961C25.9029 50.9073 24.1556 50.9073 22.7492 50.0961L6.5812 40.7718C5.17215 39.9591 4.29688 38.4438 4.29688 36.817V18.1829C4.29688 16.5562 5.17215 15.0408 6.58131 14.2283L22.7492 4.90393C24.1557 4.09268 25.9035 4.093 27.3094 4.90393L43.4774 14.2281C44.8864 15.0408 45.7617 16.5561 45.7617 18.1829V36.817Z" fill="#445964"/>
<path d="M22.9876 25.8596L15.0082 19.1067C14.1026 18.3401 12.7468 18.453 11.9803 19.359C11.2139 20.265 11.3269 21.6208 12.2327 22.3874L18.2739 27.5L12.2327 32.6125C11.3269 33.3791 11.214 34.7349 11.9803 35.6409C12.7486 36.5488 14.1047 36.6578 15.0082 35.8931L22.9876 29.1402C24.0028 28.2812 23.9999 26.7163 22.9876 25.8596Z" fill="#445964"/>
<path d="M36.4382 32.104H26.7707C25.5841 32.104 24.6223 33.066 24.6223 34.2528C24.6223 35.4396 25.5841 36.4015 26.7707 36.4015H36.4382C37.6246 36.4015 38.5866 35.4396 38.5866 34.2528C38.5866 33.066 37.6247 32.104 36.4382 32.104Z" fill="#445964"/>
</svg>
