<svg width="40" height="40" viewBox="0 0 40 40" fill="none" xmlns="http://www.w3.org/2000/svg">
<path d="M40 37.908L28.8267 26.7346C31.5117 23.5112 32.8506 19.3767 32.5649 15.1912C32.2792 11.0058 30.3909 7.09157 27.2927 4.26291C24.1946 1.43425 20.1252 -0.0910874 15.9311 0.00421098C11.7369 0.0995094 7.74103 1.80811 4.77457 4.77457C1.80811 7.74103 0.0995094 11.7369 0.00421098 15.9311C-0.0910874 20.1252 1.43425 24.1946 4.26291 27.2927C7.09157 30.3909 11.0058 32.2792 15.1912 32.5649C19.3767 32.8506 23.5112 31.5117 26.7346 28.8267L37.908 40L40 37.908ZM3.01195 16.3276C3.01195 13.6941 3.7929 11.1196 5.25605 8.92984C6.7192 6.74009 8.79883 5.03338 11.232 4.02555C13.6651 3.01772 16.3424 2.75402 18.9254 3.26781C21.5084 3.7816 23.881 5.0498 25.7433 6.91203C27.6055 8.77426 28.8737 11.1469 29.3875 13.7299C29.9013 16.3129 29.6376 18.9902 28.6298 21.4233C27.6219 23.8565 25.9152 25.9361 23.7255 27.3992C21.5357 28.8624 18.9612 29.6433 16.3276 29.6433C12.7973 29.6394 9.41268 28.2353 6.91635 25.7389C4.42003 23.2426 3.01587 19.858 3.01195 16.3276Z" fill="#232323" fill-opacity="0.9"/>
</svg>
